<?xml version="1.0" standalone="no"?> <svg xmlns="http://www.w3.org/2000/svg" viewBox="0 0 102.192 118" width="102.192" height="118"><style>polygon{stroke:#fff}path{fill:#fff}g{fill:#fff;color:#fff}@media (prefers-color-scheme:dark){polygon{stroke:#000}path{fill:#000}g{fill:#000;color:#000}}</style><polygon fill="none" stroke-width="3" points="100.692,30.25 100.692,87.75 51.096,116.5 1.5,87.75 1.5,30.25 51.096,1.5"></polygon><path fill-rule="nonzero" d="M0 21L0 0L4.31 0Q8.46 0 10.50 2.63Q12.54 5.26 12.54 10.58L12.54 10.58Q12.54 13.41 11.77 15.76Q11.00 18.12 9.32 19.56Q7.64 21 5.04 21L5.04 21L0 21ZM4.09 17.72L4.68 17.72Q6.80 17.72 7.63 15.89Q8.46 14.06 8.46 11.37L8.46 11.37L8.46 10.42Q8.46 8.48 8.22 6.99Q7.98 5.49 7.13 4.38Q6.27 3.28 4.56 3.28L4.56 3.28L4.09 3.28L4.09 17.72Z" transform="translate(44.824, 22.5)"></path><g transform="translate(29.095999999999997 51.5) scale(0.8148149)"><svg width="54.0" height="54.0" x="0.0" y="0.0" viewBox="0 0 54 54"><path fill-rule="evenodd" d="M14.31 12.015c.81-.09 1.08.27 1.215.54-.81.045-1.53-.045-1.98-.36.18-.045.45-.135.765-.18M27 0c7.47 0 14.22 3.015 19.08 7.92C50.985 12.78 54 19.53 54 27c0 7.47-3.015 14.22-7.92 19.08C41.22 50.985 34.47 54 27 54c-7.47 0-14.22-3.015-19.08-7.92C3.015 41.22 0 34.47 0 27c0-3.06.54-5.985 1.485-8.73.27-.72.54-1.395.81-2.07.045-.09.135-.27.36-.045.36.36.855.405 1.26.135-.27-.045-.63-.225-.9-.495-.315-.27-.45-.63-.495-.9-.045.09-1.575-.45-1.395-1.98 1.62 1.035 1.935-.495 3.285-.63-1.395-.54-1.17-2.925-1.17-2.925s1.035 1.35 2.61 1.44c-.63-.9.225-1.665.225-1.665s.315.45.81.765c.855.495 2.205.54 3.51.54.405 0 .855-.045 1.26-.045h.225a13.18 13.18 0 0 1 1.89 0 2.906 2.906 0 0 1 2.52 1.845s0 .09.045.18l1.08-.135c.72-.045 1.485-.135 2.205-.18 1.035-.045 1.845.36 2.43.9.63.54.855 1.35.945 1.755-.495-.27-2.205-.36-3.69.18-1.89.72-3.15 2.025-3.42 2.34-.45.54-.855 1.035-1.215 1.62-.27.45-.54.9-.765 1.395a14.813 14.813 0 0 0-1.575 6.3v.315c0 4.095 1.665 7.785 4.32 10.44a14.723 14.723 0 0 0 10.44 4.32c4.095 0 7.785-1.665 10.44-4.32a14.726 14.726 0 0 0 4.32-10.44c0-4.095-1.665-7.785-4.32-10.44a14.725 14.725 0 0 0-10.44-4.32c-1.26 0-2.475.135-3.645.45-.09 0-.135.045-.225.045a3.839 3.839 0 0 0-1.44-1.17c-.315-.18-.495-.225-.72-.315-.36-.09-.765-.18-1.125-.18.135-.045.225-.09.36-.135 2.16-.9 4.455-1.35 6.795-1.35 2.385 0 4.635.45 6.795 1.35 2.07.855 3.915 2.115 5.535 3.735 1.62 1.62 2.88 3.465 3.735 5.535.9 2.16 1.35 4.41 1.35 6.795s-.45 4.635-1.35 6.795c-.855 2.07-2.115 3.915-3.735 5.535-1.62 1.62-3.465 2.88-5.535 3.735-2.16.9-4.455 1.35-6.795 1.35-2.385 0-4.635-.45-6.795-1.35-.315-.09-.63-.27-.945-.405-.36-.135-1.125-.495-1.35.09-.225.54.27.99.63 1.17.36.18.72.36 1.08.495 2.295.99 4.77 1.485 7.335 1.485 2.565 0 4.995-.495 7.335-1.485 2.25-.945 4.23-2.295 5.985-4.05 1.755-1.71 3.105-3.735 4.05-5.985.99-2.34 1.485-4.77 1.485-7.335 0-2.565-.495-4.995-1.485-7.335-.945-2.25-2.295-4.23-4.05-5.985-1.71-1.755-3.735-3.105-5.985-4.05A18.588 18.588 0 0 0 27.045 8.1c-2.565 0-4.995.495-7.335 1.485-.99.405-1.935.9-2.835 1.485l-.09-.09a3.64 3.64 0 0 0-.945-.9 20.833 20.833 0 0 1 3.285-1.755A20.332 20.332 0 0 1 27 6.75c2.745 0 5.4.54 7.875 1.575a20.886 20.886 0 0 1 6.435 4.365c1.89 1.845 3.33 4.005 4.365 6.435A20.332 20.332 0 0 1 47.25 27c0 2.745-.54 5.4-1.575 7.875a20.878 20.878 0 0 1-4.365 6.435c-1.845 1.89-4.005 3.33-6.435 4.365A20.332 20.332 0 0 1 27 47.25c-2.745 0-5.4-.54-7.74-1.665-.45-.18-.9-.36-1.305-.585-.315-.135-.99-.45-1.26.045s.27 1.035.585 1.215c.45.225.945.45 1.44.675a21.86 21.86 0 0 0 8.46 1.71c2.925 0 5.805-.585 8.46-1.71a21.59 21.59 0 0 0 6.885-4.635 21.586 21.586 0 0 0 4.635-6.885 21.86 21.86 0 0 0 1.71-8.46c0-2.925-.585-5.805-1.71-8.46a21.58 21.58 0 0 0-4.635-6.885 21.59 21.59 0 0 0-6.885-4.635 21.857 21.857 0 0 0-8.46-1.71c-2.925 0-5.805.585-8.46 1.71-1.53.63-2.97 1.44-4.32 2.43-.405-.09-1.08-.18-2.07-.135a22.911 22.911 0 0 1 14.805-5.4c12.735 0 23.085 10.35 23.085 23.085 0 6.39-2.61 12.15-6.795 16.335-4.185 4.185-9.945 6.795-16.335 6.795-3.78 0-7.38-.9-10.575-2.565-.36-.18-1.08-.405-1.35.135-.27.495.225.9.54 1.08.585.315 1.17.585 1.8.855 3.015 1.305 6.21 1.935 9.54 1.935 3.285 0 6.525-.675 9.54-1.935a24.796 24.796 0 0 0 7.785-5.265c2.25-2.25 4.05-4.86 5.265-7.785 1.305-3.015 1.935-6.255 1.935-9.54 0-3.285-.675-6.525-1.935-9.54a24.796 24.796 0 0 0-5.265-7.785c-2.25-2.25-4.86-4.05-7.785-5.265-3.015-1.305-6.21-1.935-9.54-1.935-3.285 0-6.525.675-9.54 1.935-2.835 1.17-5.355 2.88-7.56 4.995-1.935-.045-2.7-.54-2.79-.63.09-.09.18-.225.27-.315C12.33 3.24 19.26 0 27 0zm0 19.62l1.71 5.175h5.445l-4.41 3.24 1.665 5.22L27 30.06l-4.41 3.195 1.665-5.22-4.41-3.24h5.445L27 19.62z"></path></svg></g></svg>