<?xml version="1.0" standalone="no"?>
<svg xmlns="http://www.w3.org/2000/svg" viewBox="0 0 103.896 36" width="103.896" height="36"><g fill="#000" color="#000" transform="translate(0 4) scale(0.5185186)"><svg width="54.0" height="54.0" x="0.0" y="0.0" viewBox="0 0 54 54"><path fill="currentColor" fill-rule="evenodd" d="M14.31 12.015c.81-.09 1.08.27 1.215.54-.81.045-1.53-.045-1.98-.36.18-.045.45-.135.765-.18M27 0c7.47 0 14.22 3.015 19.08 7.92C50.985 12.78 54 19.53 54 27c0 7.47-3.015 14.22-7.92 19.08C41.22 50.985 34.47 54 27 54c-7.47 0-14.22-3.015-19.08-7.92C3.015 41.22 0 34.47 0 27c0-3.06.54-5.985 1.485-8.73.27-.72.54-1.395.81-2.07.045-.09.135-.27.36-.045.36.36.855.405 1.26.135-.27-.045-.63-.225-.9-.495-.315-.27-.45-.63-.495-.9-.045.09-1.575-.45-1.395-1.98 1.62 1.035 1.935-.495 3.285-.63-1.395-.54-1.17-2.925-1.17-2.925s1.035 1.35 2.61 1.44c-.63-.9.225-1.665.225-1.665s.315.45.81.765c.855.495 2.205.54 3.51.54.405 0 .855-.045 1.26-.045h.225a13.18 13.18 0 0 1 1.89 0 2.906 2.906 0 0 1 2.52 1.845s0 .09.045.18l1.08-.135c.72-.045 1.485-.135 2.205-.18 1.035-.045 1.845.36 2.43.9.63.54.855 1.35.945 1.755-.495-.27-2.205-.36-3.69.18-1.89.72-3.15 2.025-3.42 2.34-.45.54-.855 1.035-1.215 1.62-.27.45-.54.9-.765 1.395a14.813 14.813 0 0 0-1.575 6.3v.315c0 4.095 1.665 7.785 4.32 10.44a14.723 14.723 0 0 0 10.44 4.32c4.095 0 7.785-1.665 10.44-4.32a14.726 14.726 0 0 0 4.32-10.44c0-4.095-1.665-7.785-4.32-10.44a14.725 14.725 0 0 0-10.44-4.32c-1.26 0-2.475.135-3.645.45-.09 0-.135.045-.225.045a3.839 3.839 0 0 0-1.44-1.17c-.315-.18-.495-.225-.72-.315-.36-.09-.765-.18-1.125-.18.135-.045.225-.09.36-.135 2.16-.9 4.455-1.35 6.795-1.35 2.385 0 4.635.45 6.795 1.35 2.07.855 3.915 2.115 5.535 3.735 1.62 1.62 2.88 3.465 3.735 5.535.9 2.16 1.35 4.41 1.35 6.795s-.45 4.635-1.35 6.795c-.855 2.07-2.115 3.915-3.735 5.535-1.62 1.62-3.465 2.88-5.535 3.735-2.16.9-4.455 1.35-6.795 1.35-2.385 0-4.635-.45-6.795-1.35-.315-.09-.63-.27-.945-.405-.36-.135-1.125-.495-1.35.09-.225.54.27.99.63 1.17.36.18.72.36 1.08.495 2.295.99 4.77 1.485 7.335 1.485 2.565 0 4.995-.495 7.335-1.485 2.25-.945 4.23-2.295 5.985-4.05 1.755-1.71 3.105-3.735 4.05-5.985.99-2.34 1.485-4.77 1.485-7.335 0-2.565-.495-4.995-1.485-7.335-.945-2.25-2.295-4.23-4.05-5.985-1.71-1.755-3.735-3.105-5.985-4.05A18.588 18.588 0 0 0 27.045 8.1c-2.565 0-4.995.495-7.335 1.485-.99.405-1.935.9-2.835 1.485l-.09-.09a3.64 3.64 0 0 0-.945-.9 20.833 20.833 0 0 1 3.285-1.755A20.332 20.332 0 0 1 27 6.75c2.745 0 5.4.54 7.875 1.575a20.886 20.886 0 0 1 6.435 4.365c1.89 1.845 3.33 4.005 4.365 6.435A20.332 20.332 0 0 1 47.25 27c0 2.745-.54 5.4-1.575 7.875a20.878 20.878 0 0 1-4.365 6.435c-1.845 1.89-4.005 3.33-6.435 4.365A20.332 20.332 0 0 1 27 47.25c-2.745 0-5.4-.54-7.74-1.665-.45-.18-.9-.36-1.305-.585-.315-.135-.99-.45-1.26.045s.27 1.035.585 1.215c.45.225.945.45 1.44.675a21.86 21.86 0 0 0 8.46 1.71c2.925 0 5.805-.585 8.46-1.71a21.59 21.59 0 0 0 6.885-4.635 21.586 21.586 0 0 0 4.635-6.885 21.86 21.86 0 0 0 1.71-8.46c0-2.925-.585-5.805-1.71-8.46a21.58 21.58 0 0 0-4.635-6.885 21.59 21.59 0 0 0-6.885-4.635 21.857 21.857 0 0 0-8.46-1.71c-2.925 0-5.805.585-8.46 1.71-1.53.63-2.97 1.44-4.32 2.43-.405-.09-1.08-.18-2.07-.135a22.911 22.911 0 0 1 14.805-5.4c12.735 0 23.085 10.35 23.085 23.085 0 6.39-2.61 12.15-6.795 16.335-4.185 4.185-9.945 6.795-16.335 6.795-3.78 0-7.38-.9-10.575-2.565-.36-.18-1.08-.405-1.35.135-.27.495.225.9.54 1.08.585.315 1.17.585 1.8.855 3.015 1.305 6.21 1.935 9.54 1.935 3.285 0 6.525-.675 9.54-1.935a24.796 24.796 0 0 0 7.785-5.265c2.25-2.25 4.05-4.86 5.265-7.785 1.305-3.015 1.935-6.255 1.935-9.54 0-3.285-.675-6.525-1.935-9.54a24.796 24.796 0 0 0-5.265-7.785c-2.25-2.25-4.86-4.05-7.785-5.265-3.015-1.305-6.21-1.935-9.54-1.935-3.285 0-6.525.675-9.54 1.935-2.835 1.17-5.355 2.88-7.56 4.995-1.935-.045-2.7-.54-2.79-.63.09-.09.18-.225.27-.315C12.33 3.24 19.26 0 27 0zm0 19.62l1.71 5.175h5.445l-4.41 3.24 1.665 5.22L27 30.06l-4.41 3.195 1.665-5.22-4.41-3.24h5.445L27 19.62z"></path></svg></g><path fill="#000" fill-rule="nonzero" d="M0 20.74L0 0.12L5.69 0.12Q7.90 0.12 9 1.34Q10.10 2.57 10.13 4.97L10.13 4.97L10.18 14.62Q10.20 17.66 9.12 19.20Q8.04 20.74 5.54 20.74L5.54 20.74L0 20.74ZM4.15 17.09L4.87 17.09Q6 17.09 6 15.98L6 15.98L6 5.35Q6 4.66 5.89 4.31Q5.78 3.96 5.50 3.84Q5.21 3.72 4.61 3.72L4.61 3.72L4.15 3.72L4.15 17.09ZM16.68 20.93Q13.97 20.93 12.79 19.44Q11.62 17.95 11.62 15L11.62 15L11.62 7.94Q11.62 5.52 13.01 4.25Q14.40 2.98 16.90 2.98L16.90 2.98Q21.96 2.98 21.96 7.94L21.96 7.94L21.96 9.22Q21.96 11.14 21.91 12.34L21.91 12.34L15.82 12.34L15.82 15.74Q15.82 16.66 16.01 17.17Q16.20 17.69 16.82 17.69L16.82 17.69Q17.30 17.69 17.51 17.40Q17.71 17.11 17.75 16.74Q17.78 16.37 17.78 15.65L17.78 15.65L17.78 13.94L21.96 13.94L21.96 14.95Q21.96 18.02 20.77 19.48Q19.58 20.93 16.68 20.93L16.68 20.93ZM15.79 10.25L17.78 10.25L17.78 7.99Q17.78 6.10 16.85 6.10L16.85 6.10Q15.79 6.10 15.79 7.99L15.79 7.99L15.79 10.25ZM30.58 20.74L25.70 20.74L22.90 3.17L27.10 3.17L27.96 12.05L28.10 14.90L28.27 12.02L29.23 3.17L33.43 3.17L30.58 20.74ZM40.44 14.76L34.39 14.76L34.39 12.05L40.44 12.05L40.44 14.76ZM46.22 20.74L42.07 20.74L42.07 0.12L50.33 0.12L50.33 4.13L46.22 4.13L46.22 7.42L50.11 7.42L50.11 11.38L46.22 11.38L46.22 20.74ZM55.85 20.74L51.58 20.74L51.58 0L55.85 0L55.85 20.74ZM62.64 20.93Q57.38 20.93 57.38 15.48L57.38 15.48L57.38 8.42Q57.38 5.93 58.79 4.45Q60.19 2.98 62.64 2.98L62.64 2.98Q65.09 2.98 66.49 4.45Q67.90 5.93 67.90 8.42L67.90 8.42L67.90 15.48Q67.90 20.93 62.64 20.93L62.64 20.93ZM62.64 17.69Q63.14 17.69 63.38 17.33Q63.62 16.97 63.62 16.34L63.62 16.34L63.62 7.75Q63.62 6.22 62.64 6.22L62.64 6.22Q61.66 6.22 61.66 7.75L61.66 7.75L61.66 16.34Q61.66 16.97 61.90 17.33Q62.14 17.69 62.64 17.69L62.64 17.69Z" transform="translate(36, 7.632)"></path></svg>