<?xml version="1.0" standalone="no"?>
<!DOCTYPE svg PUBLIC "-//W3C//DTD SVG 20010904//EN"
 "http://www.w3.org/TR/2001/REC-SVG-20010904/DTD/svg10.dtd">
<svg version="1.0" xmlns="http://www.w3.org/2000/svg"
 width="944.000000pt" height="944.000000pt" viewBox="0 0 944.000000 944.000000"
 preserveAspectRatio="xMidYMid meet">
<metadata>
Created by potrace 1.14, written by Peter Selinger 2001-2017
</metadata>
<g transform="translate(0.000000,944.000000) scale(0.100000,-0.100000)"
fill="#000000" stroke="none">
<path d="M4645 9417 c-22 -12 -42 -24 -45 -27 -5 -5 -9 -8 -122 -72 -152 -86
-620 -356 -638 -368 -8 -6 -26 -16 -40 -22 -14 -7 -27 -15 -30 -18 -9 -11
-151 -90 -161 -90 -5 0 -9 -4 -9 -8 0 -4 -12 -13 -27 -20 -33 -15 -69 -36
-141 -80 -29 -17 -57 -32 -62 -32 -6 0 -10 -4 -10 -8 0 -4 -12 -13 -27 -19
-30 -13 -75 -38 -168 -95 -55 -33 -102 -60 -165 -95 -14 -8 -43 -25 -65 -39
-22 -14 -52 -30 -67 -37 -16 -6 -28 -15 -28 -19 0 -4 -4 -8 -9 -8 -5 0 -74
-38 -155 -85 -80 -47 -150 -85 -155 -85 -5 0 -11 -4 -13 -8 -3 -7 -71 -48
-199 -120 -20 -11 -67 -39 -104 -61 -37 -23 -69 -41 -71 -41 -3 0 -49 -26
-102 -58 -53 -32 -104 -61 -112 -65 -8 -4 -28 -16 -45 -26 -16 -11 -46 -28
-65 -38 -19 -11 -91 -52 -160 -92 -69 -41 -145 -85 -170 -99 -25 -14 -61 -36
-80 -49 -19 -12 -38 -23 -43 -23 -4 0 -24 -11 -45 -24 -37 -23 -196 -117 -262
-154 -19 -10 -120 -69 -225 -129 l-190 -110 -3 -2372 -2 -2371 25 -12 c14 -6
25 -15 25 -20 0 -5 3 -7 8 -4 4 2 26 -9 50 -25 23 -16 44 -29 46 -29 2 0 55
-30 117 -66 63 -37 134 -78 159 -92 25 -13 65 -37 90 -52 25 -15 119 -70 210
-123 91 -52 181 -104 200 -115 19 -12 46 -27 60 -35 14 -7 70 -40 125 -72 164
-95 338 -196 375 -217 176 -100 366 -214 368 -220 2 -4 10 -8 18 -8 7 0 45
-20 84 -45 38 -25 70 -42 70 -38 0 3 8 -1 18 -9 9 -9 35 -25 57 -37 67 -36
150 -85 175 -103 14 -10 30 -18 37 -18 7 0 13 -4 13 -10 0 -5 4 -10 10 -10 8
0 560 -316 665 -381 17 -11 37 -22 45 -26 8 -4 86 -49 173 -100 88 -51 163
-93 168 -93 5 0 9 -4 9 -10 0 -5 5 -10 11 -10 6 0 49 -23 97 -51 80 -48 105
-62 173 -101 13 -7 26 -15 29 -18 3 -3 16 -11 30 -18 14 -7 46 -24 72 -40 184
-108 251 -142 281 -142 20 0 61 16 107 44 248 145 303 176 311 176 5 0 9 4 9
8 0 5 16 14 35 22 19 8 35 17 35 21 0 4 10 11 23 15 12 3 29 12 37 19 8 7 42
27 75 45 33 17 65 35 70 40 6 4 30 19 55 32 25 14 73 42 107 62 34 20 66 36
72 36 6 0 11 5 11 10 0 6 7 10 15 10 8 0 15 4 15 9 0 5 11 12 24 15 14 3 31
12 38 19 8 6 27 19 43 28 17 9 156 89 310 179 154 89 300 174 325 188 25 14
92 53 150 87 58 34 112 65 120 69 8 4 32 17 52 29 20 12 83 49 140 82 57 33
112 65 123 72 11 7 27 15 35 20 8 4 47 25 85 48 39 23 115 68 170 100 55 31
125 72 155 90 30 18 75 44 100 57 66 37 100 56 254 147 76 44 142 81 147 81 5
0 9 5 9 10 0 6 4 10 9 10 8 0 192 103 251 140 8 5 53 31 100 58 47 27 141 81
210 121 69 40 150 87 180 104 30 17 61 37 68 43 9 10 12 495 10 2380 l-3 2368
-55 29 c-30 17 -57 33 -60 37 -3 4 -18 13 -35 22 -16 8 -75 41 -130 73 -55 32
-110 63 -122 69 -13 6 -23 14 -23 19 0 4 -5 7 -10 7 -6 0 -65 32 -133 71 -67
40 -142 83 -167 97 -25 14 -89 52 -143 84 -55 32 -100 58 -102 58 -2 0 -32 17
-66 38 -35 22 -84 50 -109 64 -25 14 -101 58 -170 98 -69 40 -143 83 -165 95
-22 13 -114 66 -204 119 -90 53 -168 96 -172 96 -5 0 -9 5 -9 10 0 6 -3 9 -7
8 -5 -1 -19 5 -33 14 -25 16 -186 109 -270 156 -25 14 -57 33 -72 43 -14 11
-28 19 -31 19 -2 0 -56 30 -118 66 -63 37 -134 78 -159 92 -25 14 -62 36 -82
49 -21 12 -42 23 -48 23 -5 0 -10 5 -10 10 0 6 -4 10 -9 10 -5 0 -75 38 -156
85 -80 47 -165 96 -188 109 -105 59 -173 100 -189 114 -10 8 -18 12 -18 9 0
-6 -106 55 -127 73 -7 5 -14 10 -17 10 -7 0 -509 290 -586 339 -14 8 -28 16
-32 16 -3 0 -10 3 -14 8 -15 14 -80 6 -119 -16z m303 -368 c125 -73 243 -141
262 -152 19 -11 202 -116 405 -235 379 -220 389 -226 487 -281 32 -18 61 -37
64 -42 3 -5 9 -7 14 -4 4 3 13 -2 20 -10 7 -8 16 -15 20 -15 4 0 38 -18 74
-40 36 -22 70 -40 76 -40 5 0 10 -4 10 -10 0 -5 6 -10 14 -10 7 0 19 -7 26
-15 7 -8 16 -12 21 -9 5 3 9 0 9 -5 0 -6 4 -11 9 -11 7 0 63 -31 161 -90 75
-45 153 -90 156 -90 2 0 32 -17 66 -38 35 -21 70 -41 78 -45 8 -4 29 -16 45
-26 17 -11 53 -32 80 -47 28 -14 62 -35 77 -45 14 -11 28 -19 31 -19 3 0 51
-27 107 -60 56 -33 106 -60 111 -60 5 0 9 -4 9 -10 0 -5 4 -10 10 -10 5 0 47
-22 92 -49 46 -27 99 -58 118 -69 19 -10 107 -61 195 -112 88 -52 170 -98 182
-104 13 -6 23 -14 23 -18 0 -5 5 -8 11 -8 6 0 45 -20 86 -45 40 -25 78 -45 83
-45 6 0 10 -4 10 -8 0 -4 12 -13 28 -19 15 -7 99 -54 187 -106 l160 -93 0
-2234 0 -2233 -350 -203 c-192 -111 -366 -212 -385 -223 -19 -12 -136 -79
-260 -151 -124 -71 -231 -134 -237 -140 -7 -5 -23 -15 -35 -20 -13 -5 -41 -21
-63 -34 -22 -14 -51 -31 -65 -39 -73 -41 -129 -72 -160 -92 -19 -12 -42 -25
-50 -29 -8 -4 -33 -18 -55 -31 -22 -13 -56 -33 -75 -43 -19 -10 -129 -74 -245
-142 -115 -67 -226 -132 -245 -143 -19 -10 -72 -41 -118 -68 -45 -27 -87 -49
-92 -49 -6 0 -10 -4 -10 -10 0 -5 -5 -10 -10 -10 -6 0 -54 -26 -107 -58 -53
-31 -100 -56 -104 -54 -5 1 -9 -2 -9 -7 0 -5 -17 -18 -37 -29 -56 -29 -109
-59 -188 -106 -38 -24 -77 -46 -85 -49 -8 -4 -33 -18 -55 -32 -22 -14 -51 -30
-65 -36 -13 -6 -27 -14 -30 -18 -3 -4 -30 -21 -60 -36 -30 -16 -74 -42 -97
-58 -24 -15 -43 -24 -43 -20 0 4 -4 4 -8 -2 -4 -5 -16 -15 -27 -21 -48 -26
-70 -39 -75 -44 -3 -3 -19 -12 -35 -21 -17 -9 -105 -59 -197 -113 l-168 -96
-90 52 c-50 29 -103 59 -118 67 -15 8 -28 18 -30 23 -2 4 -8 8 -13 8 -5 0
-166 91 -357 201 -191 111 -360 209 -377 219 -108 61 -424 245 -445 258 -14 9
-27 17 -30 17 -3 0 -16 8 -30 17 -14 9 -37 22 -52 29 -16 7 -28 16 -28 21 0 4
-5 8 -11 8 -6 0 -45 20 -86 45 -40 25 -75 45 -77 45 -2 0 -48 26 -103 58 -54
33 -217 128 -363 212 -344 199 -376 218 -430 248 -25 13 -52 31 -61 38 -8 8
-19 14 -23 14 -4 0 -84 45 -177 100 -93 55 -172 100 -174 100 -2 0 -45 25 -95
55 -50 30 -95 55 -100 55 -6 0 -10 5 -10 10 0 6 -5 10 -11 10 -9 0 -75 37
-179 100 -8 5 -60 34 -115 66 -55 32 -137 79 -183 106 l-82 49 0 2229 0 2229
73 42 c39 23 81 48 92 54 11 7 24 12 29 13 5 0 12 4 15 9 5 8 33 25 131 81 19
10 102 58 183 106 82 47 153 86 158 86 5 0 9 5 9 10 0 6 4 10 9 10 5 0 74 38
155 85 80 47 150 85 155 85 5 0 11 4 13 8 2 5 28 22 58 39 108 60 281 161 295
173 8 7 15 9 15 5 0 -4 15 4 34 19 19 14 37 26 39 26 2 0 125 70 273 156 148
86 290 168 315 183 35 20 236 136 357 206 9 6 45 27 80 48 35 20 65 37 67 37
4 0 121 68 155 90 8 6 26 16 40 22 14 7 39 23 56 35 17 13 33 23 37 23 4 0
116 63 177 100 102 61 313 180 320 180 6 0 10 4 10 9 0 5 8 11 18 14 9 4 35
17 57 30 72 43 420 246 423 247 2 0 106 -59 230 -131z"/>
<path d="M4286 7643 c-3 -3 -21 -6 -38 -5 l-33 1 1 -837 1 -837 31 -6 c18 -4
32 -3 32 1 0 5 8 6 18 4 30 -8 262 -9 262 -2 0 4 11 3 24 -2 13 -5 26 -7 29
-4 2 2 31 6 63 9 162 11 284 80 385 215 62 83 126 259 144 395 14 98 14 111
14 220 0 232 -26 378 -93 517 -47 97 -52 104 -119 171 -85 82 -216 141 -339
150 -21 2 -40 6 -43 9 -3 3 -21 2 -40 -2 -19 -4 -36 -5 -39 -3 -3 3 -29 5 -58
4 -92 -2 -130 -1 -138 4 -5 3 -11 1 -15 -5 -4 -7 -12 -7 -24 0 -10 5 -21 6
-25 3z m423 -292 c20 -11 51 -34 69 -52 31 -32 78 -116 74 -133 -2 -4 2 -13 7
-20 17 -21 32 -160 35 -333 2 -114 -3 -194 -18 -293 -6 -41 -46 -153 -66 -185
-42 -69 -105 -103 -203 -110 l-62 -5 0 573 c-1 382 3 575 10 580 16 12 114 -2
154 -22z"/>
<path d="M4515 5309 c-27 -5 -56 -7 -62 -4 -7 2 -13 -1 -13 -7 0 -6 -2 -9 -6
-6 -3 3 -22 2 -42 -3 -20 -5 -53 -12 -72 -15 -19 -3 -38 -8 -42 -11 -7 -4 -21
-7 -74 -19 -38 -7 -222 -84 -292 -121 -76 -40 -183 -106 -227 -140 -16 -13
-35 -27 -40 -31 -31 -21 -163 -141 -185 -166 -32 -38 -32 -48 5 -58 115 -33
133 -30 212 40 97 85 183 142 333 223 75 41 266 108 353 125 10 2 26 5 35 8 9
3 35 8 57 11 22 3 54 8 70 11 60 9 292 11 370 2 83 -9 130 -15 130 -18 0 -1 9
-3 20 -5 93 -15 245 -66 363 -121 81 -38 235 -131 240 -145 2 -5 10 -9 17 -9
8 0 18 -6 22 -13 4 -6 24 -24 44 -39 50 -37 187 -175 223 -223 17 -22 36 -44
43 -48 7 -4 13 -15 13 -22 0 -8 4 -15 8 -15 12 0 126 -192 163 -275 36 -80
101 -276 94 -283 -3 -3 -1 -10 4 -16 10 -14 32 -155 34 -224 1 -29 5 -52 8
-52 4 0 3 -16 -1 -35 -4 -19 -4 -35 0 -35 4 0 6 -12 4 -27 -2 -16 -6 -64 -8
-108 -5 -93 -10 -119 -36 -235 -22 -94 -28 -115 -30 -115 -1 0 -3 -7 -5 -15
-11 -54 -133 -320 -147 -320 -4 0 -8 -5 -8 -10 0 -19 -69 -118 -150 -214 -31
-37 -147 -154 -181 -181 -136 -113 -277 -199 -424 -260 -83 -34 -232 -81 -289
-90 -17 -3 -43 -8 -58 -11 -64 -13 -102 -16 -247 -18 -98 -2 -183 2 -235 11
-45 8 -92 15 -106 17 -30 4 -147 34 -175 46 -11 4 -36 14 -55 21 -19 6 -74 30
-121 51 -97 44 -124 75 -94 108 19 21 51 18 99 -8 17 -9 33 -17 36 -17 3 -1
23 -9 45 -19 56 -25 237 -83 282 -91 21 -3 52 -8 68 -10 17 -2 50 -7 75 -10
100 -14 313 -9 410 9 56 11 87 17 125 28 22 5 47 11 55 13 8 2 56 19 106 39
50 20 94 36 99 36 4 0 19 9 35 20 15 11 30 17 34 13 3 -3 6 -1 6 5 0 6 10 14
22 18 28 8 114 64 193 124 84 63 220 202 286 290 62 83 129 192 129 209 0 6 4
11 9 11 5 0 11 8 14 18 3 9 22 56 42 105 20 48 38 95 40 105 3 9 14 53 25 97
72 286 55 596 -50 879 -32 88 -111 247 -136 277 -8 8 -14 21 -14 27 0 7 -4 12
-10 12 -5 0 -10 6 -10 14 0 8 -3 16 -7 18 -5 2 -28 29 -52 61 -100 131 -269
279 -420 367 -129 75 -294 142 -398 162 -1 0 -28 7 -60 15 -32 8 -79 15 -105
16 -27 1 -48 5 -48 8 0 7 -305 3 -350 -5 -269 -49 -439 -114 -636 -243 -44
-29 -91 -64 -102 -76 l-22 -23 37 1 c21 1 50 -2 65 -6 19 -5 32 -2 47 12 11
10 23 19 27 19 4 0 15 6 23 14 37 31 264 140 316 151 5 1 36 9 67 19 31 9 70
19 85 22 15 3 39 7 53 10 94 18 333 24 410 11 19 -4 53 -9 75 -12 129 -20 310
-83 438 -154 94 -52 217 -139 217 -153 0 -6 3 -8 7 -4 13 13 200 -192 266
-290 91 -138 186 -348 202 -449 2 -11 6 -32 9 -47 3 -16 8 -40 11 -55 25 -127
25 -351 -1 -483 -2 -14 -7 -38 -10 -54 -3 -16 -6 -33 -7 -39 -1 -5 -17 -53
-35 -106 -18 -53 -34 -100 -35 -105 -7 -32 -121 -236 -154 -276 -7 -8 -26 -33
-43 -55 -62 -79 -183 -199 -250 -245 -19 -14 -37 -27 -40 -30 -17 -17 -127
-82 -190 -113 -98 -47 -158 -70 -250 -95 -74 -21 -93 -25 -180 -39 -58 -10
-343 -10 -395 0 -134 24 -193 38 -235 54 -8 4 -17 7 -20 8 -25 7 -64 21 -108
41 -29 13 -56 24 -60 24 -15 0 -61 46 -67 67 -5 18 -1 25 18 34 21 9 42 4 143
-39 96 -41 198 -76 211 -74 2 1 17 -4 35 -9 65 -19 257 -38 288 -29 3 1 39 3
80 5 41 2 86 7 100 10 14 3 41 8 60 11 19 3 42 7 50 10 8 3 26 8 40 10 14 3
32 7 40 11 8 3 20 7 25 8 23 5 173 70 215 93 259 142 492 404 597 672 19 48
56 162 58 180 2 8 5 29 9 45 33 155 35 381 6 494 -5 19 -7 38 -4 43 3 4 0 8
-6 8 -6 0 -9 4 -5 10 6 10 -23 110 -58 200 -34 85 -89 188 -143 265 -51 74
-242 275 -261 275 -6 0 -13 4 -15 9 -1 4 -37 31 -78 58 -172 115 -327 175
-540 210 -88 14 -361 8 -440 -10 -8 -2 -33 -7 -55 -12 -22 -4 -46 -12 -52 -18
-7 -5 -13 -7 -13 -3 0 18 -273 -101 -331 -145 l-23 -17 33 -31 c34 -32 51 -39
51 -21 0 6 4 10 10 10 5 0 31 13 57 28 26 16 53 30 58 32 6 1 21 7 35 13 71
28 99 38 115 43 21 6 62 16 100 24 22 5 51 12 65 16 41 11 332 13 380 3 25 -5
59 -11 75 -14 145 -21 392 -137 520 -245 62 -52 167 -164 215 -228 27 -37 54
-73 60 -79 6 -7 8 -13 4 -13 -4 0 0 -8 8 -17 34 -38 112 -227 134 -323 48
-211 47 -426 -3 -599 -8 -29 -16 -59 -18 -65 -1 -6 -5 -19 -8 -28 -4 -10 -10
-26 -14 -35 -3 -10 -7 -23 -8 -29 -6 -25 -77 -158 -122 -226 -55 -85 -272
-308 -299 -308 -3 0 -22 -13 -42 -29 -48 -37 -149 -91 -156 -84 -3 4 -6 1 -6
-5 0 -7 -4 -12 -9 -12 -5 0 -26 -7 -47 -16 -22 -9 -41 -16 -44 -17 -3 0 -29
-8 -58 -18 -29 -10 -81 -23 -115 -30 -34 -6 -73 -13 -87 -16 -77 -16 -319 -4
-425 20 -49 12 -111 30 -120 35 -5 4 -16 7 -24 9 -35 5 -158 66 -169 84 -7 11
-9 30 -6 45 6 22 11 25 38 21 18 -2 41 -9 51 -15 48 -27 243 -86 324 -99 54
-8 300 -8 351 0 25 4 63 12 85 18 22 6 49 12 60 13 11 2 48 15 82 29 34 14 64
22 67 19 3 -3 6 -1 6 5 0 6 11 14 24 17 24 6 183 107 226 145 171 148 283 311
348 506 49 147 62 228 62 379 0 68 -6 151 -10 151 -1 0 -3 11 -4 25 -1 14 -5
39 -9 55 -4 17 -9 39 -11 50 -7 36 -49 149 -75 205 -82 171 -227 339 -387 448
-59 40 -224 125 -224 116 0 -2 -12 2 -27 9 -35 18 -190 54 -268 62 -59 6 -166
6 -235 1 -97 -9 -310 -65 -335 -88 -7 -6 -7 -8 0 -7 26 8 128 -36 165 -71 22
-20 42 -35 44 -33 2 3 19 7 38 10 18 2 52 8 74 12 39 7 233 6 279 -2 55 -10
97 -21 165 -44 399 -137 660 -517 645 -938 -4 -108 -8 -136 -30 -215 -1 -3 -5
-21 -9 -40 -5 -19 -12 -39 -15 -45 -4 -5 -16 -32 -25 -58 -24 -65 -122 -210
-187 -277 -280 -288 -694 -373 -1069 -218 -41 17 -87 39 -102 49 -14 11 -29
19 -33 19 -4 0 -20 10 -35 23 -15 12 -42 33 -60 46 -52 40 -137 130 -175 185
-72 105 -137 245 -151 326 -3 14 -7 32 -10 40 -17 48 -24 229 -11 325 9 72 41
195 50 195 4 0 7 8 7 18 0 29 82 179 134 245 27 35 73 81 103 102 30 22 60 46
68 53 8 7 15 11 15 7 0 -3 10 1 23 9 41 27 135 47 204 45 38 -1 70 1 72 5 6
13 -23 71 -48 94 -15 13 -46 33 -70 44 -39 18 -57 20 -147 14 -57 -3 -117 -9
-133 -12 -26 -6 -31 -3 -36 19 -9 33 -50 72 -100 93 -33 14 -77 17 -245 18
-218 2 -245 7 -293 58 -14 14 -22 16 -32 8 -17 -14 -24 -54 -13 -74 7 -13 4
-16 -14 -16 -27 0 -128 56 -128 70 0 6 -5 10 -11 10 -7 0 -9 -16 -6 -47 7 -63
21 -98 48 -116 l22 -16 -34 -16 c-19 -9 -51 -25 -71 -35 -29 -15 -43 -18 -63
-10 -36 14 -45 13 -45 -5 0 -30 30 -73 65 -95 19 -12 35 -27 35 -34 0 -15 37
-49 65 -62 17 -7 15 -9 -15 -12 -19 -2 -36 1 -38 7 -10 31 -55 -21 -67 -79 -2
-8 -11 -33 -20 -54 -9 -22 -18 -47 -20 -55 -2 -9 -10 -43 -18 -76 -9 -33 -18
-71 -21 -85 -3 -14 -8 -36 -11 -50 -10 -43 -19 -142 -20 -212 0 -38 -3 -68 -7
-68 -4 0 -5 -6 -3 -12 2 -7 6 -60 9 -118 3 -58 8 -116 11 -130 3 -14 8 -41 10
-60 11 -67 27 -135 55 -225 12 -38 23 -74 24 -80 13 -46 102 -230 135 -280 15
-22 30 -47 33 -56 15 -40 165 -223 249 -306 100 -98 201 -183 217 -183 6 0 12
-4 14 -10 4 -13 159 -105 253 -150 78 -37 211 -88 249 -96 10 -2 33 -8 50 -13
33 -11 44 -13 171 -37 68 -13 203 -24 295 -25 291 -3 667 105 908 260 34 23
67 41 72 41 6 0 10 4 10 8 0 4 12 15 28 24 15 9 37 25 48 35 12 10 44 37 72
60 257 219 441 505 545 848 15 48 39 165 52 250 19 118 19 381 1 471 -2 12 -7
39 -11 60 -12 71 -13 78 -30 144 -24 100 -112 332 -127 338 -4 2 -8 9 -8 16 0
20 -115 202 -183 289 -63 81 -219 240 -267 274 -14 10 -34 26 -45 36 -27 25
-166 116 -237 155 -68 38 -238 113 -238 105 0 -3 -6 -1 -12 4 -11 9 -29 15
-83 29 -5 1 -37 10 -70 19 -64 17 -135 32 -200 40 -70 10 -388 12 -440 4z
m-564 -789 l24 -21 -51 4 c-65 6 -89 18 -54 28 42 12 57 10 81 -11z"/>
<path d="M4662 3867 l-53 -163 -175 1 -175 0 28 -24 c15 -12 38 -32 51 -42 12
-10 25 -19 27 -19 3 0 35 -22 71 -50 36 -27 73 -54 83 -60 23 -12 20 -28 -42
-217 -24 -73 -41 -133 -39 -133 4 0 93 61 102 70 10 11 149 109 167 119 16 8
26 4 54 -18 40 -32 236 -171 242 -171 4 0 -68 231 -83 265 -24 57 -21 68 31
105 28 19 56 40 62 45 7 6 47 36 89 67 43 31 72 58 65 60 -6 2 -85 3 -174 3
l-162 -1 -22 71 c-12 38 -26 75 -30 80 -4 6 -7 12 -6 15 2 9 -48 160 -53 160
-3 0 -29 -73 -58 -163z"/>
</g>
</svg>
